<svg xmlns="http://www.w3.org/2000/svg" xmlns:xlink="http://www.w3.org/1999/xlink" width="1024" zoomAndPan="magnify" viewBox="0 0 768 767.999994" height="1024" preserveAspectRatio="xMidYMid meet" version="1.0"><defs><g/><clipPath id="8d93ffe5ec"><path d="M 7.730469 7.730469 L 760.269531 7.730469 L 760.269531 760.269531 L 7.730469 760.269531 Z M 7.730469 7.730469 " clip-rule="nonzero"/></clipPath><clipPath id="f1dfd1d827"><path d="M 384 7.730469 C 176.191406 7.730469 7.730469 176.191406 7.730469 384 C 7.730469 591.808594 176.191406 760.269531 384 760.269531 C 591.808594 760.269531 760.269531 591.808594 760.269531 384 C 760.269531 176.191406 591.808594 7.730469 384 7.730469 Z M 384 7.730469 " clip-rule="nonzero"/></clipPath><clipPath id="f918c31468"><path d="M 0.730469 0.730469 L 753.269531 0.730469 L 753.269531 753.269531 L 0.730469 753.269531 Z M 0.730469 0.730469 " clip-rule="nonzero"/></clipPath><clipPath id="d4d7f93ec7"><path d="M 377 0.730469 C 169.191406 0.730469 0.730469 169.191406 0.730469 377 C 0.730469 584.808594 169.191406 753.269531 377 753.269531 C 584.808594 753.269531 753.269531 584.808594 753.269531 377 C 753.269531 169.191406 584.808594 0.730469 377 0.730469 Z M 377 0.730469 " clip-rule="nonzero"/></clipPath><clipPath id="ac1000197a"><rect x="0" width="754" y="0" height="754"/></clipPath><clipPath id="cff8444752"><rect x="0" width="608" y="0" height="321"/></clipPath></defs><g clip-path="url(#8d93ffe5ec)"><g clip-path="url(#f1dfd1d827)"><g transform="matrix(1, 0, 0, 1, 7, 7)"><g clip-path="url(#ac1000197a)"><g clip-path="url(#f918c31468)"><g clip-path="url(#d4d7f93ec7)"><path fill="#f0b100" d="M 0.730469 0.730469 L 753.269531 0.730469 L 753.269531 753.269531 L 0.730469 753.269531 Z M 0.730469 0.730469 " fill-opacity="1" fill-rule="nonzero"/></g></g></g></g></g></g><g transform="matrix(1, 0, 0, 1, 80, 222)"><g clip-path="url(#cff8444752)"><g fill="#ffffff" fill-opacity="1"><g transform="translate(73.37213, 124.689338)"><g><path d="M 48.515625 -91.925781 C 45.148438 -83.917969 39.460938 -75.210938 34.007812 -69.523438 C 36.910156 -68.015625 42.132812 -64.765625 44.570312 -62.675781 C 49.910156 -69.175781 56.410156 -79.273438 60.585938 -88.328125 Z M 36.097656 -90.300781 C 31.917969 -92.503906 24.839844 -95.753906 19.152344 -97.730469 L 12.070312 -89.488281 C 17.410156 -87.167969 24.953125 -83.453125 28.902344 -81.132812 Z M 27.855469 -75.792969 C 23.792969 -77.882812 16.597656 -81.015625 11.140625 -82.757812 L 4.0625 -74.28125 C 9.402344 -72.195312 16.714844 -68.710938 20.777344 -66.390625 Z M 29.363281 -68.710938 C 20.777344 -61.050781 11.492188 -53.390625 5.570312 -48.863281 L 13.695312 -39.347656 C 20.078125 -45.035156 27.738281 -52.230469 34.472656 -59.078125 Z M 72.195312 -25.417969 C 69.523438 -20.890625 65.925781 -17.292969 61.515625 -14.277344 C 55.710938 -15.785156 49.5625 -17.292969 43.523438 -18.6875 C 45.265625 -20.660156 47.007812 -22.980469 48.632812 -25.417969 Z M 51.535156 -44.6875 C 73.933594 -48.515625 89.835938 -55.246094 98.542969 -69.640625 C 99.585938 -68.132812 100.515625 -66.738281 101.210938 -65.578125 L 112.238281 -71.496094 C 108.289062 -77.648438 100.167969 -86.46875 93.667969 -92.738281 L 83.335938 -87.398438 C 87.167969 -83.453125 91.578125 -78.578125 95.292969 -73.933594 L 88.09375 -75.792969 C 85.65625 -71.496094 82.523438 -68.132812 78.34375 -65.347656 L 78.34375 -98.191406 L 65.347656 -98.191406 L 65.347656 -64.300781 L 76.71875 -64.300781 C 66.507812 -58.148438 51.535156 -55.597656 32.730469 -54.4375 C 35.050781 -51.417969 37.257812 -46.660156 38.1875 -42.828125 C 40.273438 -43.0625 42.363281 -43.292969 44.335938 -43.640625 C 43.175781 -41.4375 41.898438 -39.347656 40.507812 -37.140625 L 6.152344 -37.140625 L 6.152344 -25.417969 L 32.382812 -25.417969 C 28.550781 -20.429688 24.722656 -15.785156 21.125 -11.953125 C 28.902344 -10.328125 36.5625 -8.472656 44.105469 -6.617188 C 34.125 -3.945312 21.820312 -2.554688 6.964844 -1.855469 C 9.167969 1.277344 11.492188 6.152344 12.417969 10.214844 C 34.355469 8.355469 51.1875 5.222656 63.835938 -1.160156 C 76.488281 2.554688 87.628906 6.269531 95.871094 9.632812 L 106.898438 -0.929688 C 98.773438 -3.832031 88.328125 -7.082031 76.835938 -10.214844 C 81.246094 -14.390625 84.730469 -19.5 87.628906 -25.417969 L 110.148438 -25.417969 L 110.148438 -37.140625 L 56.523438 -37.140625 C 57.683594 -39 58.730469 -40.738281 59.660156 -42.597656 Z M 51.535156 -44.6875 "/></g></g></g><g fill="#ffffff" fill-opacity="1"><g transform="translate(189.433963, 124.689338)"><g><path d="M 30.875 -73.820312 L 44.570312 -73.820312 L 44.570312 -80.78125 L 71.148438 -80.78125 L 71.148438 -74.167969 L 84.84375 -74.167969 L 84.84375 -80.78125 L 109.914062 -80.78125 L 109.914062 -91.925781 L 84.84375 -91.925781 L 84.84375 -98.191406 L 71.148438 -98.191406 L 71.148438 -91.925781 L 44.570312 -91.925781 L 44.570312 -98.191406 L 30.875 -98.191406 L 30.875 -91.925781 L 6.382812 -91.925781 L 6.382812 -80.78125 L 30.875 -80.78125 Z M 82.757812 -5.457031 L 82.757812 -15.667969 L 109.335938 -15.667969 L 109.335938 -27.625 L 82.757812 -27.625 L 82.757812 -35.632812 L 103.996094 -35.632812 L 103.996094 -46.773438 L 82.757812 -46.773438 L 82.757812 -53.507812 L 69.175781 -53.507812 L 69.175781 -46.773438 L 58.265625 -46.773438 C 60.472656 -49.675781 62.558594 -52.8125 64.648438 -56.292969 L 106.898438 -56.292969 L 106.898438 -67.550781 L 71.148438 -67.550781 C 72.078125 -69.410156 73.007812 -71.382812 73.933594 -73.238281 L 60.007812 -76.71875 C 58.847656 -73.703125 57.453125 -70.570312 55.945312 -67.550781 L 37.140625 -67.550781 L 37.140625 -56.292969 L 49.792969 -56.292969 C 48.398438 -54.203125 47.355469 -52.578125 46.660156 -51.648438 C 44.453125 -48.632812 42.480469 -46.660156 40.273438 -46.078125 C 41.667969 -42.710938 43.875 -36.5625 44.570312 -33.777344 C 45.613281 -34.9375 50.375 -35.632812 55.480469 -35.632812 L 69.175781 -35.632812 L 69.175781 -27.625 L 35.863281 -27.625 L 35.863281 -15.667969 L 69.175781 -15.667969 L 69.175781 -5.457031 Z M 30.875 -58.496094 C 28.089844 -63.023438 21.703125 -69.410156 16.480469 -73.933594 L 6.269531 -67.433594 C 11.492188 -62.675781 17.527344 -55.828125 20.078125 -51.300781 Z M 30.875 -45.5 L 5.457031 -45.5 L 5.457031 -33.890625 L 18.105469 -33.890625 L 18.105469 -12.535156 C 13.578125 -10.214844 8.703125 -6.152344 4.0625 -1.277344 L 12.304688 10.328125 C 16.714844 3.480469 21.820312 -3.597656 25.070312 -3.597656 C 27.390625 -3.597656 31.339844 -0.117188 35.863281 2.667969 C 43.757812 7.3125 53.042969 8.472656 67.550781 8.472656 C 80.085938 8.472656 99.585938 7.890625 108.988281 7.3125 C 109.101562 3.832031 111.078125 -2.320312 112.46875 -5.6875 C 100.28125 -4.0625 80.667969 -3.019531 67.898438 -3.019531 C 55.132812 -3.019531 44.917969 -3.714844 37.375 -8.242188 C 34.703125 -9.980469 32.613281 -11.492188 30.875 -12.535156 Z M 30.875 -45.5 "/></g></g></g><g fill="#ffffff" fill-opacity="1"><g transform="translate(305.495797, 124.689338)"><g><path d="M 66.972656 -50.953125 L 109.566406 -50.953125 L 109.566406 -61.398438 L 91.925781 -61.398438 L 91.925781 -67.898438 L 107.476562 -67.898438 L 107.476562 -77.765625 L 91.925781 -77.765625 L 91.925781 -83.570312 L 108.871094 -83.570312 L 108.871094 -94.015625 L 60.585938 -94.015625 L 60.585938 -83.570312 L 78.578125 -83.570312 L 78.578125 -77.765625 L 63.371094 -77.765625 L 63.371094 -67.898438 L 78.578125 -67.898438 L 78.578125 -61.398438 L 61.746094 -61.398438 L 61.746094 -54.550781 L 56.871094 -56.871094 C 56.175781 -56.292969 55.480469 -55.710938 54.785156 -55.132812 L 54.785156 -61.285156 L 37.953125 -61.285156 L 37.953125 -67.785156 L 52.695312 -67.785156 L 52.695312 -77.648438 L 37.953125 -77.648438 L 37.953125 -83.570312 L 54.785156 -83.570312 L 54.785156 -94.015625 L 7.082031 -94.015625 L 7.082031 -83.570312 L 24.839844 -83.570312 L 24.839844 -77.648438 L 9.980469 -77.648438 L 9.980469 -67.785156 L 24.839844 -67.785156 L 24.839844 -61.285156 L 6.617188 -61.285156 L 6.617188 -50.953125 L 49.328125 -50.953125 C 37.488281 -42.945312 20.429688 -36.097656 3.714844 -31.800781 C 6.382812 -29.132812 10.445312 -23.5625 12.1875 -20.429688 C 14.855469 -21.242188 17.527344 -22.167969 20.078125 -23.097656 L 20.078125 -11.722656 L 71.730469 -11.722656 C 67.085938 -6.152344 61.746094 -0.117188 56.757812 5.222656 L 69.292969 11.257812 C 77.765625 1.855469 87.28125 -9.402344 94.710938 -18.917969 L 84.613281 -24.027344 L 82.40625 -23.328125 L 64.070312 -23.328125 L 69.988281 -27.042969 C 67.433594 -30.527344 62.558594 -35.285156 57.800781 -38.652344 L 47.585938 -33.078125 C 50.953125 -30.292969 54.550781 -26.578125 57.105469 -23.328125 L 20.542969 -23.328125 C 34.238281 -28.320312 46.890625 -34.820312 57.335938 -42.710938 C 68.597656 -34.9375 86.933594 -25.882812 103.53125 -21.589844 C 105.621094 -25.1875 109.683594 -30.527344 112.703125 -33.425781 C 95.871094 -36.792969 76.953125 -43.640625 66.042969 -50.023438 Z M 66.972656 -50.953125 "/></g></g></g><g fill="#ffffff" fill-opacity="1"><g transform="translate(421.557631, 124.689338)"><g><path d="M 2.203125 -54.46875 L 1.421875 -55.703125 C 2.242188 -59.140625 3.609375 -63.457031 5.515625 -68.65625 C 7.429688 -73.851562 9.390625 -78.585938 11.390625 -82.859375 L 23.796875 -82.859375 C 21.304688 -72.765625 19.398438 -63.300781 18.078125 -54.46875 Z M 2.203125 -54.46875 "/></g></g></g><g fill="#ffffff" fill-opacity="1"><g transform="translate(446.719391, 124.689338)"><g><path d="M 53.265625 -18.8125 C 53.265625 -12.3125 51.003906 -7.359375 46.484375 -3.953125 C 41.972656 -0.554688 35.222656 1.140625 26.234375 1.140625 C 21.628906 1.140625 17.703125 0.828125 14.453125 0.203125 C 11.203125 -0.421875 8.160156 -1.335938 5.328125 -2.546875 L 5.328125 -16.828125 C 8.535156 -15.316406 12.148438 -14.050781 16.171875 -13.03125 C 20.203125 -12.007812 23.75 -11.5 26.8125 -11.5 C 33.082031 -11.5 36.21875 -13.3125 36.21875 -16.9375 C 36.21875 -18.300781 35.800781 -19.40625 34.96875 -20.25 C 34.132812 -21.101562 32.695312 -22.066406 30.65625 -23.140625 C 28.613281 -24.222656 25.894531 -25.484375 22.5 -26.921875 C 17.625 -28.960938 14.039062 -30.847656 11.75 -32.578125 C 9.46875 -34.316406 7.804688 -36.3125 6.765625 -38.5625 C 5.734375 -40.8125 5.21875 -43.578125 5.21875 -46.859375 C 5.21875 -52.492188 7.398438 -56.847656 11.765625 -59.921875 C 16.128906 -63.003906 22.3125 -64.546875 30.3125 -64.546875 C 37.945312 -64.546875 45.375 -62.882812 52.59375 -59.5625 L 47.375 -47.09375 C 44.195312 -48.457031 41.226562 -49.570312 38.46875 -50.4375 C 35.71875 -51.300781 32.90625 -51.734375 30.03125 -51.734375 C 24.9375 -51.734375 22.390625 -50.359375 22.390625 -47.609375 C 22.390625 -46.054688 23.207031 -44.710938 24.84375 -43.578125 C 26.488281 -42.441406 30.085938 -40.757812 35.640625 -38.53125 C 40.585938 -36.53125 44.210938 -34.660156 46.515625 -32.921875 C 48.828125 -31.179688 50.53125 -29.175781 51.625 -26.90625 C 52.71875 -24.644531 53.265625 -21.945312 53.265625 -18.8125 Z M 53.265625 -18.8125 "/></g></g></g><g fill="#ffffff" fill-opacity="1"><g transform="translate(504.436711, 124.689338)"><g/></g></g><g fill="#ffffff" fill-opacity="1"><g transform="translate(2.102915, 286.368919)"><g><path d="M 78.3125 0 L 60.8125 0 L 60.8125 -35.765625 L 28 -35.765625 L 28 0 L 10.421875 0 L 10.421875 -82.859375 L 28 -82.859375 L 28 -50.375 L 60.8125 -50.375 L 60.8125 -82.859375 L 78.3125 -82.859375 Z M 78.3125 0 "/></g></g></g><g fill="#ffffff" fill-opacity="1"><g transform="translate(90.90582, 286.368919)"><g><path d="M 59.328125 -23.015625 C 59.328125 -15.523438 56.632812 -9.625 51.25 -5.3125 C 45.875 -1.007812 38.382812 1.140625 28.78125 1.140625 C 19.945312 1.140625 12.128906 -0.523438 5.328125 -3.859375 L 5.328125 -20.171875 C 10.921875 -17.679688 15.648438 -15.925781 19.515625 -14.90625 C 23.390625 -13.882812 26.9375 -13.375 30.15625 -13.375 C 34 -13.375 36.953125 -14.109375 39.015625 -15.578125 C 41.078125 -17.054688 42.109375 -19.25 42.109375 -22.15625 C 42.109375 -23.78125 41.65625 -25.222656 40.75 -26.484375 C 39.84375 -27.753906 38.507812 -28.972656 36.75 -30.140625 C 34.988281 -31.316406 31.410156 -33.191406 26.015625 -35.765625 C 20.953125 -38.140625 17.15625 -40.421875 14.625 -42.609375 C 12.09375 -44.804688 10.070312 -47.359375 8.5625 -50.265625 C 7.050781 -53.171875 6.296875 -56.570312 6.296875 -60.46875 C 6.296875 -67.800781 8.773438 -73.5625 13.734375 -77.75 C 18.703125 -81.945312 25.570312 -84.046875 34.34375 -84.046875 C 38.644531 -84.046875 42.75 -83.535156 46.65625 -82.515625 C 50.570312 -81.492188 54.664062 -80.054688 58.9375 -78.203125 L 53.265625 -64.546875 C 48.847656 -66.359375 45.191406 -67.625 42.296875 -68.34375 C 39.410156 -69.0625 36.570312 -69.421875 33.78125 -69.421875 C 30.445312 -69.421875 27.894531 -68.644531 26.125 -67.09375 C 24.351562 -65.550781 23.46875 -63.53125 23.46875 -61.03125 C 23.46875 -59.488281 23.820312 -58.140625 24.53125 -56.984375 C 25.25 -55.828125 26.390625 -54.710938 27.953125 -53.640625 C 29.523438 -52.566406 33.242188 -50.628906 39.109375 -47.828125 C 46.847656 -44.128906 52.148438 -40.414062 55.015625 -36.6875 C 57.890625 -32.96875 59.328125 -28.410156 59.328125 -23.015625 Z M 59.328125 -23.015625 "/></g></g></g><g fill="#ffffff" fill-opacity="1"><g transform="translate(154.830292, 286.368919)"><g><path d="M 77.078125 0 L 57.125 0 L 35.421875 -34.90625 L 28 -29.578125 L 28 0 L 10.421875 0 L 10.421875 -82.859375 L 28 -82.859375 L 28 -44.9375 L 34.90625 -54.6875 L 57.34375 -82.859375 L 76.84375 -82.859375 L 47.9375 -46.1875 Z M 77.078125 0 "/></g></g></g><g fill="#ffffff" fill-opacity="1"><g transform="translate(231.902352, 286.368919)"><g/></g></g><g fill="#ffffff" fill-opacity="1"><g transform="translate(262.051128, 286.368919)"><g><path d="M 79.171875 -42.21875 C 79.171875 -28.582031 75.285156 -18.132812 67.515625 -10.875 C 59.753906 -3.625 48.546875 0 33.890625 0 L 10.421875 0 L 10.421875 -82.859375 L 36.4375 -82.859375 C 49.96875 -82.859375 60.472656 -79.285156 67.953125 -72.140625 C 75.429688 -65.003906 79.171875 -55.03125 79.171875 -42.21875 Z M 60.921875 -41.765625 C 60.921875 -59.554688 53.0625 -68.453125 37.34375 -68.453125 L 28 -68.453125 L 28 -14.515625 L 35.53125 -14.515625 C 52.457031 -14.515625 60.921875 -23.597656 60.921875 -41.765625 Z M 60.921875 -41.765625 "/></g></g></g><g fill="#ffffff" fill-opacity="1"><g transform="translate(347.963805, 286.368919)"><g><path d="M 35.3125 -52.25 C 31.644531 -52.25 28.769531 -51.085938 26.6875 -48.765625 C 24.613281 -46.441406 23.425781 -43.144531 23.125 -38.875 L 47.375 -38.875 C 47.300781 -43.144531 46.1875 -46.441406 44.03125 -48.765625 C 41.875 -51.085938 38.96875 -52.25 35.3125 -52.25 Z M 37.75 1.140625 C 27.539062 1.140625 19.566406 -1.671875 13.828125 -7.296875 C 8.085938 -12.929688 5.21875 -20.90625 5.21875 -31.21875 C 5.21875 -41.84375 7.867188 -50.050781 13.171875 -55.84375 C 18.484375 -61.644531 25.820312 -64.546875 35.1875 -64.546875 C 44.144531 -64.546875 51.113281 -61.992188 56.09375 -56.890625 C 61.082031 -51.796875 63.578125 -44.753906 63.578125 -35.765625 L 63.578125 -27.375 L 22.71875 -27.375 C 22.914062 -22.457031 24.375 -18.617188 27.09375 -15.859375 C 29.8125 -13.109375 33.625 -11.734375 38.53125 -11.734375 C 42.351562 -11.734375 45.960938 -12.128906 49.359375 -12.921875 C 52.765625 -13.710938 56.316406 -14.976562 60.015625 -16.71875 L 60.015625 -3.34375 C 56.992188 -1.832031 53.765625 -0.707031 50.328125 0.03125 C 46.890625 0.769531 42.695312 1.140625 37.75 1.140625 Z M 37.75 1.140625 "/></g></g></g><g fill="#ffffff" fill-opacity="1"><g transform="translate(416.535268, 286.368919)"><g><path d="M 34.796875 1.140625 C 15.078125 1.140625 5.21875 -9.6875 5.21875 -31.34375 C 5.21875 -42.101562 7.898438 -50.328125 13.265625 -56.015625 C 18.628906 -61.703125 26.316406 -64.546875 36.328125 -64.546875 C 43.660156 -64.546875 50.234375 -63.109375 56.046875 -60.234375 L 50.953125 -46.859375 C 48.222656 -47.960938 45.6875 -48.863281 43.34375 -49.5625 C 41.007812 -50.257812 38.671875 -50.609375 36.328125 -50.609375 C 27.335938 -50.609375 22.84375 -44.222656 22.84375 -31.453125 C 22.84375 -19.054688 27.335938 -12.859375 36.328125 -12.859375 C 39.648438 -12.859375 42.726562 -13.300781 45.5625 -14.1875 C 48.394531 -15.082031 51.226562 -16.472656 54.0625 -18.359375 L 54.0625 -3.5625 C 51.269531 -1.789062 48.445312 -0.566406 45.59375 0.109375 C 42.738281 0.796875 39.140625 1.140625 34.796875 1.140625 Z M 34.796875 1.140625 "/></g></g></g><g fill="#ffffff" fill-opacity="1"><g transform="translate(476.209467, 286.368919)"><g><path d="M 25.671875 -34.453125 L 33.203125 -44.09375 L 50.953125 -63.359375 L 70.4375 -63.359375 L 45.28125 -35.875 L 71.96875 0 L 52.03125 0 L 33.78125 -25.671875 L 26.359375 -19.71875 L 26.359375 0 L 9.0625 0 L 9.0625 -88.1875 L 26.359375 -88.1875 L 26.359375 -48.84375 L 25.453125 -34.453125 Z M 25.671875 -34.453125 "/></g></g></g><g fill="#ffffff" fill-opacity="1"><g transform="translate(548.18117, 286.368919)"><g><path d="M 53.265625 -18.8125 C 53.265625 -12.3125 51.003906 -7.359375 46.484375 -3.953125 C 41.972656 -0.554688 35.222656 1.140625 26.234375 1.140625 C 21.628906 1.140625 17.703125 0.828125 14.453125 0.203125 C 11.203125 -0.421875 8.160156 -1.335938 5.328125 -2.546875 L 5.328125 -16.828125 C 8.535156 -15.316406 12.148438 -14.050781 16.171875 -13.03125 C 20.203125 -12.007812 23.75 -11.5 26.8125 -11.5 C 33.082031 -11.5 36.21875 -13.3125 36.21875 -16.9375 C 36.21875 -18.300781 35.800781 -19.40625 34.96875 -20.25 C 34.132812 -21.101562 32.695312 -22.066406 30.65625 -23.140625 C 28.613281 -24.222656 25.894531 -25.484375 22.5 -26.921875 C 17.625 -28.960938 14.039062 -30.847656 11.75 -32.578125 C 9.46875 -34.316406 7.804688 -36.3125 6.765625 -38.5625 C 5.734375 -40.8125 5.21875 -43.578125 5.21875 -46.859375 C 5.21875 -52.492188 7.398438 -56.847656 11.765625 -59.921875 C 16.128906 -63.003906 22.3125 -64.546875 30.3125 -64.546875 C 37.945312 -64.546875 45.375 -62.882812 52.59375 -59.5625 L 47.375 -47.09375 C 44.195312 -48.457031 41.226562 -49.570312 38.46875 -50.4375 C 35.71875 -51.300781 32.90625 -51.734375 30.03125 -51.734375 C 24.9375 -51.734375 22.390625 -50.359375 22.390625 -47.609375 C 22.390625 -46.054688 23.207031 -44.710938 24.84375 -43.578125 C 26.488281 -42.441406 30.085938 -40.757812 35.640625 -38.53125 C 40.585938 -36.53125 44.210938 -34.660156 46.515625 -32.921875 C 48.828125 -31.179688 50.53125 -29.175781 51.625 -26.90625 C 52.71875 -24.644531 53.265625 -21.945312 53.265625 -18.8125 Z M 53.265625 -18.8125 "/></g></g></g></g></g></svg>